<svg width="123" height="120" xmlns="http://www.w3.org/2000/svg" xmlns:xlink="http://www.w3.org/1999/xlink">
  <defs>
    <linearGradient x1="50%" y1="38.97836%" y2="38.97836%" id="a">
      <stop stop-color="#687D87" stop-opacity=".2" offset="0%"/>
      <stop stop-color="#37474F" stop-opacity=".2" offset="100%"/>
    </linearGradient>
    <ellipse id="b" cx="101.82857" cy="80" rx="16.97143" ry="17"/>
  </defs>
  <g fill="none" fill-rule="evenodd">
    <path d="M53.28139 79.49457h-35.1745l-4.15986-31.616c-.43812-3.32743 1.90023-6.02514 5.22207-6.02514h34.11229v37.64114z" fill="#FFF"/>
    <path fill-opacity=".2" fill="#37474F" d="M12.97815 47h1.99664l2.99496 32h-4.9916z"/>
    <path d="M19.23214 78.20886h32.76598V43.13914H19.16939c-1.22195 0-2.30184.46457-3.04003 1.308-.75074.85772-1.07362 2.01657-.9099 3.26343l4.01268 30.49829zm34.04953 2.57143H18.1066c-.64406 0-1.18828-.47829-1.27214-1.11772l-4.15985-31.616c-.26242-1.992.27895-3.872 1.52429-5.29486 1.23335-1.40857 2.99838-2.184 4.97049-2.184h34.11228c.70852 0 1.28356.576 1.28356 1.28572v37.64114c0 .70972-.57504 1.28572-1.28356 1.28572z" fill="#FF4081"/>
    <path fill="#E8CCEC" d="M34.71168 53.186H21.0541l-.47463-3.60857h13.65758zM28.61702 58.76691h-6.82907l-.47463-3.60914h6.82907zM46.88923 68.114H33.23165l-.47463-3.60914H46.4146zM47.62348 73.69434h-6.82907l-.47463-3.60857h6.82907z"/>
    <path d="M85.4048 19.6592H64.62434c11.6193 0 21.03943 9.43543 21.03943 21.07429v38.76114h20.78045V40.73349c0-11.63886-9.41957-21.07429-21.03944-21.07429" fill="url(#a)"/>
    <path d="M31.78466 19.6592h-.00057c-1.99778 0-3.9311.27371-5.76971.77657 9.26497 2.536 16.0775 11.02229 16.0775 21.108v37.95086h11.54V41.54377c0-12.08686-9.78182-21.88457-21.84722-21.88457" fill-opacity=".2" fill="#37474F"/>
    <path d="M106.44411 80.78029H32.19826c-.7091 0-1.28355-.576-1.28355-1.28572 0-.70971.57446-1.28571 1.28355-1.28571h72.96231V40.73343c0-10.91143-8.86222-19.78857-19.75588-19.78857H32.19825c-.7091 0-1.28355-.576-1.28355-1.28572 0-.70971.57446-1.28571 1.28355-1.28571h53.20643c12.30899 0 22.32299 10.03086 22.32299 22.36v38.76114c0 .70972-.57503 1.28572-1.28356 1.28572" fill="#FF4081"/>
    <path d="M63.76807 112.34v-27h-4.80676v22.19324c0 2.6547 2.15206 4.80676 4.80676 4.80676z" fill-opacity=".2" fill="#37474F"/>
    <path d="M53.6329 118.71331c-.40845 0-.81006-.19485-1.05878-.55771l-8.5074-12.40057c-.34969-.51029-.28694-1.19829.15004-1.63657.43755-.43829 1.12325-.50229 1.63382-.152l7.02132 4.82057V85.29446c0-.71029.57504-1.28572 1.28356-1.28572s1.28355.57543 1.28355 1.28572v25.932c0 .47714-.26356.91543-.68513 1.13771-.421.22229-.931.19257-1.32406-.07714l-3.34009-2.29314L54.69 116.6996c.4016.58514.25328 1.38514-.33145 1.78743-.2219.15314-.4752.22628-.72563.22628M63.76819 112.51297c-.70852 0-1.28355-.576-1.28355-1.28571V85.51297c0-.70971.57503-1.28571 1.28355-1.28571.70852 0 1.28355.576 1.28355 1.28571v25.71429c0 .70971-.57503 1.28571-1.28355 1.28571M10.86953 78.20886H51.998V41.5437c0-11.35828-9.22504-20.59885-20.56423-20.59885-11.3392 0-20.56424 9.24057-20.56424 20.59885v36.66515zm42.41203 2.57143H9.58598c-.70853 0-1.28356-.576-1.28356-1.28572V41.54371c0-12.776 10.37625-23.17028 23.13135-23.17028 12.75452 0 23.13134 10.39428 23.13134 23.17028v37.95086c0 .70972-.57503 1.28572-1.28355 1.28572z" fill="#FF4081"/>
    <path d="M78.62712 16.16703H68.06205c-2.0092 0-3.63845-1.63143-3.63845-3.64457V6.02474c0-2.01257 1.62926-3.64514 3.63845-3.64514h10.56507c2.00919 0 3.63901 1.63257 3.63901 3.64514v6.49772c0 2.01314-1.62982 3.64457-3.63901 3.64457" fill="#E8CCEC"/>
    <path fill="#FFF" d="M61.36486 41.85337V1.28594h6.1177v40.35372"/>
    <path d="M61.36486 43.13909c-.70852 0-1.28355-.576-1.28355-1.28572V1.28594c0-.70971.57503-1.28571 1.28355-1.28571h6.1177c.70853 0 1.28356.576 1.28356 1.28571v40.35372c0 .70971-.57503 1.28571-1.28356 1.28571-.70909 0-1.28355-.576-1.28355-1.28571v-39.068h-3.5506v39.28171c0 .70972-.57502 1.28572-1.28355 1.28572M2.5671 83.75314h102.59358v-2.97257H2.5671v2.97257zm103.87713 2.57143H1.28355C.57503 86.32457 0 85.74857 0 85.03886v-5.544c0-.71029.57503-1.28572 1.28355-1.28572h105.16068c.70852 0 1.28355.57543 1.28355 1.28572v5.544c0 .70971-.57503 1.28571-1.28355 1.28571zM70.61495 118.71331c-.39191 0-.77755-.17828-1.03027-.51657-.42386-.56914-.3069-1.37543.26128-1.8l4.4582-3.332-4.65616 1.22972c-.417.11028-.86254.00228-1.18429-.28629-.32174-.28914-.47634-.72114-.41188-1.14914l1.0491-6.96686-3.5757 5.99486c-.36453.60914-1.1512.80743-1.76046.444-.60812-.36457-.80722-1.15372-.44326-1.76343l6.91864-11.59886c.31547-.528.9601-.756 1.53456-.55085.57788.20742.92758.79485.8363 1.40228l-1.72965 11.48914 9.164-2.41942c.59214-.15772 1.21624.13085 1.48322.68457.26697.55485.10382 1.22114-.3885 1.58914l-9.75842 7.29486c-.23104.17143-.49973.25485-.76671.25485" fill="#FF4081"/>
    <path d="M104.40458 119.62571H10.89686c-.70853 0-1.28356-.576-1.28356-1.28571s.57503-1.28571 1.28356-1.28571h93.50772c.70852 0 1.28355.576 1.28355 1.28571s-.57503 1.28571-1.28355 1.28571" fill="#FF4081"/>
    <g>
      <use fill="#FFF" xlink:href="#b"/>
      <ellipse stroke="#FFF" stroke-width="4" cx="101.82857" cy="80" rx="18.97143" ry="19"/>
      <use stroke="#FF4081" stroke-width="2" xlink:href="#b"/>
    </g>
    <path stroke="#FF4081" stroke-width="2" stroke-linecap="round" d="M94.84034 82l4.94168 4 8.7852-10"/>
  </g>
</svg>
