<svg width="855" height="456" xmlns="http://www.w3.org/2000/svg" xmlns:xlink="http://www.w3.org/1999/xlink"><defs><circle id="b" cx="79.5" cy="79.5" r="79.5"/><filter x="-96.5%" y="-84.6%" width="293.1%" height="293.1%" filterUnits="objectBoundingBox" id="a"><feMorphology radius=".5" operator="dilate" in="SourceAlpha" result="shadowSpreadOuter1"/><feOffset dy="19" in="shadowSpreadOuter1" result="shadowOffsetOuter1"/><feGaussianBlur stdDeviation="47.5" in="shadowOffsetOuter1" result="shadowBlurOuter1"/><feColorMatrix values="0 0 0 0 0.194435009 0 0 0 0 0.194435009 0 0 0 0 0.194435009 0 0 0 0.43872924 0" in="shadowBlurOuter1"/></filter><path id="c" d="M0 .011h69.994V70H0z"/><linearGradient x1="50%" y1=".008%" x2="-47.262%" y2="181.165%" id="d"><stop stop-color="#FAD961" offset="0%"/><stop stop-color="#F76B1C" offset="100%"/></linearGradient><circle id="g" cx="47.5" cy="47.5" r="47.5"/><filter x="-91.6%" y="-78.9%" width="283.2%" height="283.2%" filterUnits="objectBoundingBox" id="f"><feMorphology radius="3.5" operator="dilate" in="SourceAlpha" result="shadowSpreadOuter1"/><feOffset dy="12" in="shadowSpreadOuter1" result="shadowOffsetOuter1"/><feGaussianBlur stdDeviation="23.5" in="shadowOffsetOuter1" result="shadowBlurOuter1"/><feColorMatrix values="0 0 0 0 0 0 0 0 0 0 0 0 0 0 0 0 0 0 0.215335446 0" in="shadowBlurOuter1"/></filter><linearGradient x1="50%" y1="0%" x2="50%" y2="100%" id="h"><stop stop-color="#0290CB" offset="0%"/><stop stop-color="#01579B" offset="100%"/></linearGradient><linearGradient x1="50%" y1="0%" x2="50%" y2="100%" id="i"><stop stop-color="#0290CB" offset="0%"/><stop stop-color="#01579B" offset="100%"/></linearGradient><circle id="k" cx="33" cy="33" r="33"/><filter x="-131.8%" y="-113.6%" width="363.6%" height="363.6%" filterUnits="objectBoundingBox" id="j"><feMorphology radius="3.5" operator="dilate" in="SourceAlpha" result="shadowSpreadOuter1"/><feOffset dy="12" in="shadowSpreadOuter1" result="shadowOffsetOuter1"/><feGaussianBlur stdDeviation="23.5" in="shadowOffsetOuter1" result="shadowBlurOuter1"/><feColorMatrix values="0 0 0 0 0 0 0 0 0 0 0 0 0 0 0 0 0 0 0.215335446 0" in="shadowBlurOuter1"/></filter><path id="l" d="M0 0h42v23H0z"/><linearGradient x1="8.023%" y1="64.994%" x2="106.181%" y2="50%" id="m"><stop stop-color="#F55151" offset="0%"/><stop stop-color="#D6477C" offset="100%"/></linearGradient><circle id="p" cx="42" cy="42" r="42"/><filter x="-103.6%" y="-89.3%" width="307.1%" height="307.1%" filterUnits="objectBoundingBox" id="o"><feMorphology radius="3.5" operator="dilate" in="SourceAlpha" result="shadowSpreadOuter1"/><feOffset dy="12" in="shadowSpreadOuter1" result="shadowOffsetOuter1"/><feGaussianBlur stdDeviation="23.5" in="shadowOffsetOuter1" result="shadowBlurOuter1"/><feColorMatrix values="0 0 0 0 0 0 0 0 0 0 0 0 0 0 0 0 0 0 0.215335446 0" in="shadowBlurOuter1"/></filter><path id="q" d="M0 .09h31.147v49.808H0z"/><path id="s" d="M.006.09h31.14v18.85H.007z"/><path id="u" d="M.016.066h28.775v16.942H.016z"/><circle id="w" cx="45" cy="45" r="45"/><filter x="-96.7%" y="-83.3%" width="293.3%" height="293.3%" filterUnits="objectBoundingBox" id="v"><feMorphology radius="3.5" operator="dilate" in="SourceAlpha" result="shadowSpreadOuter1"/><feOffset dy="12" in="shadowSpreadOuter1" result="shadowOffsetOuter1"/><feGaussianBlur stdDeviation="23.5" in="shadowOffsetOuter1" result="shadowBlurOuter1"/><feColorMatrix values="0 0 0 0 0 0 0 0 0 0 0 0 0 0 0 0 0 0 0.215335446 0" in="shadowBlurOuter1"/></filter><linearGradient x1="147.335%" y1="-36.812%" x2="50%" y2="100%" id="x"><stop stop-color="#8FC1FF" offset="0%"/><stop stop-color="#568EFE" offset="100%"/></linearGradient><linearGradient x1="127.423%" y1="-36.812%" x2="50%" y2="100%" id="y"><stop stop-color="#8FC1FF" offset="0%"/><stop stop-color="#568EFE" offset="100%"/></linearGradient><circle id="A" cx="62.5" cy="62.5" r="62.5"/><filter x="-69.6%" y="-60%" width="239.2%" height="239.2%" filterUnits="objectBoundingBox" id="z"><feMorphology radius="3.5" operator="dilate" in="SourceAlpha" result="shadowSpreadOuter1"/><feOffset dy="12" in="shadowSpreadOuter1" result="shadowOffsetOuter1"/><feGaussianBlur stdDeviation="23.5" in="shadowOffsetOuter1" result="shadowBlurOuter1"/><feColorMatrix values="0 0 0 0 0 0 0 0 0 0 0 0 0 0 0 0 0 0 0.215335446 0" in="shadowBlurOuter1"/></filter><linearGradient x1="104.243%" y1="0%" x2="11.522%" y2="100%" id="B"><stop stop-color="#FDC53B" offset="0%"/><stop stop-color="#F9921B" offset="100%"/></linearGradient><circle id="D" cx="60" cy="60" r="60"/><filter x="-72.5%" y="-62.5%" width="245%" height="245%" filterUnits="objectBoundingBox" id="C"><feMorphology radius="3.5" operator="dilate" in="SourceAlpha" result="shadowSpreadOuter1"/><feOffset dy="12" in="shadowSpreadOuter1" result="shadowOffsetOuter1"/><feGaussianBlur stdDeviation="23.5" in="shadowOffsetOuter1" result="shadowBlurOuter1"/><feColorMatrix values="0 0 0 0 0 0 0 0 0 0 0 0 0 0 0 0 0 0 0.215335446 0" in="shadowBlurOuter1"/></filter><path id="E" d="M.053 0h55.892v22.565H.053z"/></defs><g fill="none" fill-rule="evenodd"><g transform="translate(91 72)"><use fill="#000" filter="url(#a)" xlink:href="#b"/><use fill="#FFF" xlink:href="#b"/></g><g transform="translate(136 116.055)"><mask id="e" fill="#fff"><use xlink:href="#c"/></mask><path d="M18.374 58.437c.03.082.043.136.067.185 1.079 2.18 2.646 3.887 4.9 4.86 2.923 1.263 5.93 1.313 8.935.348 2.566-.824 4.26-2.584 5.13-5.137.487-1.425.62-2.898.62-4.39V32.547c0-.13-.011-.259-.017-.384h-6.56v.525c0 7.174.002 14.349-.006 21.523 0 .574-.037 1.155-.125 1.722-.141.915-.464 1.789-1.355 2.207-1.42.666-2.854.675-4.2-.24-.637-.431-1.064-1.06-1.464-1.703-.198-.318-.386-.642-.593-.987l-5.332 3.227zm23.227-.71c.015.069.016.091.025.11.032.07.065.141.102.21 1.044 1.911 2.469 3.48 4.375 4.537 3.965 2.202 8.137 2.437 12.404 1.051 2.067-.67 3.723-1.946 4.817-3.867.896-1.57 1.16-3.28 1.09-5.065-.106-2.724-1.157-4.972-3.3-6.69-1.51-1.21-3.224-2.06-4.98-2.84-1.195-.53-2.408-1.023-3.576-1.607a7.641 7.641 0 0 1-1.744-1.193c-1.217-1.122-1.228-3.992 1.224-4.708 1.449-.423 3.286-.146 4.49 1.38.307.39.578.808.888 1.245l5.09-3.268c-1.125-1.973-2.567-3.56-4.67-4.417-2.53-1.03-5.144-1.12-7.766-.452-3.984 1.017-6.45 4.158-6.521 8.187-.06 3.414 1.271 6.126 4.138 8.002 1.07.7 2.23 1.275 3.383 1.834 1.454.706 2.958 1.31 4.411 2.017.549.267 1.062.651 1.51 1.07.805.752 1.002 1.736.77 2.783-.262 1.19-1.112 1.876-2.21 2.23-1.925.622-3.81.472-5.6-.492-1.202-.648-2.06-1.663-2.796-2.79-.07-.108-.145-.214-.235-.346l-5.32 3.079zM0 70h69.994V.011H0V70z" fill="url(#d)" mask="url(#e)"/></g><path d="M177.6 173.782l5.32-3.079c.09.133.164.239.235.347.737 1.126 1.594 2.142 2.797 2.79 1.788.963 3.674 1.113 5.598.492 1.099-.355 1.949-1.04 2.212-2.23.231-1.047.034-2.032-.771-2.784-.448-.419-.961-.803-1.51-1.07-1.453-.707-2.957-1.31-4.41-2.016-1.154-.56-2.314-1.135-3.384-1.835-2.867-1.876-4.199-4.588-4.138-8.002.071-4.03 2.537-7.17 6.521-8.186 2.622-.67 5.236-.579 7.765.451 2.104.857 3.546 2.444 4.671 4.417l-5.09 3.268c-.31-.437-.58-.855-.888-1.245-1.204-1.526-3.041-1.803-4.49-1.38-2.452.717-2.441 3.586-1.224 4.708a7.64 7.64 0 0 0 1.744 1.193c1.168.584 2.381 1.077 3.576 1.607 1.756.78 3.47 1.63 4.98 2.84 2.143 1.719 3.194 3.966 3.3 6.69.07 1.785-.194 3.495-1.09 5.066-1.094 1.92-2.75 3.195-4.817 3.867-4.267 1.385-8.439 1.15-12.404-1.051-1.906-1.058-3.331-2.626-4.375-4.539-.037-.068-.07-.138-.102-.209-.009-.019-.01-.041-.025-.11M154.374 174.492l5.332-3.227c.207.346.395.67.593.987.4.643.827 1.272 1.463 1.704 1.347.914 2.781.905 4.201.239.89-.418 1.214-1.292 1.355-2.207.088-.567.124-1.147.125-1.722.008-7.174.005-14.348.005-21.523v-.525h6.56c.007.126.018.255.018.384v21.756c0 1.492-.133 2.965-.62 4.39-.87 2.553-2.564 4.314-5.13 5.138-3.005.965-6.012.914-8.934-.348-2.255-.974-3.822-2.68-4.901-4.86-.024-.05-.038-.104-.067-.186" fill="#323330"/><g transform="translate(250 238)"><use fill="#000" filter="url(#f)" xlink:href="#g"/><use fill="#FFF" xlink:href="#g"/></g><g fill-rule="nonzero"><path d="M24.7 36.977v1.505h11.805v5.404c0 .016-.008.032-.01.048-.262 1.513-1.104 2.643-2.327 3.516-1.513 1.08-3.25 1.602-5.031 2.015-4.159.964-8.22.628-12.138-1.037-.932-.396-1.802-1.015-2.581-1.674-1.116-.942-1.654-2.224-1.655-3.702-.004-3.811-.04-7.623.01-11.433.046-3.427 2.705-5.996 6.13-6.006 3.807-.011 7.616-.053 11.422.011 3.848.065 7.117-2.87 7.648-6.525.061-.42.067-.851.07-1.278.008-1.494.003-2.99.003-4.484v-.578h1.718c.886 0 1.773.007 2.659-.001 2.108-.02 3.68.9 4.757 2.7.786 1.315 1.178 2.768 1.51 4.245.512 2.268.822 4.556.653 6.887-.198 2.741-.99 5.315-2.3 7.72-1.005 1.844-2.601 2.68-4.697 2.673-5.661-.019-11.323-.007-16.985-.006H24.7zm6.695 4.547c-1.257-.012-2.247.965-2.257 2.227-.01 1.26.967 2.29 2.193 2.31 1.222.02 2.246-.998 2.26-2.245.013-1.27-.955-2.28-2.196-2.292z" fill="url(#h)" transform="translate(273 260)"/><path d="M24.64 12.759v-1.504H12.813c-.024-.15-.051-.245-.05-.34.006-1.675-.027-3.352.036-5.025.1-2.668 1.168-4.113 3.738-4.83a28.839 28.839 0 0 1 4.775-.882 33.637 33.637 0 0 1 9.463.363c1.819.329 3.368 1.172 4.538 2.633.817 1.02 1.247 2.186 1.246 3.501 0 3.795.019 7.59-.005 11.384-.022 3.478-2.627 6.04-6.107 6.046-3.84.007-7.68-.002-11.521.003-3.75.004-6.834 2.546-7.54 6.225-.091.48-.108.98-.112 1.47-.014 1.528-.005 3.055-.005 4.583v.59c-.365 0-.673.003-.98 0-1.214-.011-2.43.02-3.641-.046-1.906-.105-3.335-1.065-4.392-2.625-.883-1.304-1.269-2.79-1.629-4.297-.93-3.894-.755-7.75.33-11.583 1.008-3.567 3.751-5.658 7.467-5.664 5.202-.008 10.405-.002 15.608-.002h.608zM17.94 3.682c-1.235.008-2.207 1.019-2.2 2.287.008 1.254 1.012 2.26 2.246 2.249 1.228-.012 2.217-1.04 2.207-2.294a2.243 2.243 0 0 0-2.253-2.242z" fill="url(#i)" transform="translate(273 260)"/></g><g transform="translate(737 123)"><use fill="#000" filter="url(#j)" xlink:href="#k"/><use fill="#FFF" xlink:href="#k"/></g><g transform="translate(749 144)"><mask id="n" fill="#fff"><use xlink:href="#l"/></mask><path d="M34.564 10.146H36.6V8.792h-2.035v1.354zM32.53 8.123h1.356v-2.03H32.53v2.03zm0 4.73h1.356v-2.03H32.53v2.03zm-2.713-2.707h2.034V8.792h-2.034v1.354zM20.33 11.5h1.356V3.385H20.33V11.5zm-8.13-1.354H9.487v2.708H8.13v-2.708H5.417V8.792H8.13v-2.7h1.357v2.7H12.2v1.354zM30.495 0h-6.096l-6.782.008h-6.096C5.17 0 0 5.16 0 11.5v5.407C0 20.267 2.738 23 6.096 23h1.952c3.093 0 5.698-2.312 6.054-5.366a3.179 3.179 0 0 1 3.143-2.75h7.51a3.173 3.173 0 0 1 3.143 2.742A6.094 6.094 0 0 0 33.952 23h1.952C39.271 23 42 20.267 42 16.916v-5.408C42.017 5.16 36.847 0 30.495 0z" fill="url(#m)" mask="url(#n)"/></g><g><g transform="translate(711 244)"><use fill="#000" filter="url(#o)" xlink:href="#p"/><use fill="#FFF" xlink:href="#p"/></g><g transform="translate(737 261.012)"><mask id="r" fill="#fff"><use xlink:href="#q"/></mask><path d="M28.891 1.826l-2.08.806-5.11 1.279-4.183.79c-.151.016-.304.024-.454.046-1.445.221-2.887.46-4.335.664-3.047.429-6.097.84-9.145 1.257-.33.058-.66.118-.99.173-.754.127-1.512.234-2.26.39-.133.029-.322.257-.322.393C0 11.396.009 15.168.015 18.94c-.029.448.37.358.578.393 1.797.297 3.599.572 5.402.831 1.972.285 3.948.546 5.922.817-.866.139-1.73.29-2.597.414-1.88.267-3.764.521-5.646.78l-3.658.563v11.688c-.088.356.21.348.399.382 1.122.202 2.245.41 3.374.566 2.733.38 5.47.734 8.205 1.098-.093.033-.183.084-.279.098-1.465.204-2.932.401-4.398.606-1.177.165-2.353.337-3.53.506l-3.77.555v11.66l3.772-.643c.085 0 .17.008.254-.003 3.017-.409 6.036-.806 9.05-1.235 1.412-.2 2.815-.46 4.222-.693l3.686-.643 5.859-1.467 1.93-.756c.588-.366 1.218-.68 1.744-1.12.294-.245.582-.697.586-1.06.037-3.751.015-7.503.01-11.255-.051-.231-.074-.472-.156-.691-.296-.792-1.017-1.143-1.667-1.563.36-.253.774-.456 1.065-.773.318-.346.734-.794.74-1.202.05-3.75.022-7.5.016-11.252-.042-.231-.043-.48-.132-.692-.322-.778-.988-1.2-1.7-1.563.381-.28.79-.53 1.136-.85.366-.338.715-.718.715-1.279-.001-3.579 0-7.158-.002-10.737 0-.134-.027-.268-.033-.33-.416.392-.797.793-1.225 1.137-.299.24-.661.402-.996.599" fill="#FEFEFE" mask="url(#r)"/></g><path d="M753.904 281.3l-4.987.693c-1.974-.271-3.95-.533-5.922-.817-1.803-.26-3.605-.534-5.402-.832-.209-.034-.607.056-.578-.392.147-.038.292-.085.44-.113 1.044-.2 2.087-.396 3.13-.592 1.262-.149 2.526-.282 3.785-.449 1.629-.215 3.255-.448 4.88-.69 1.792-.267 3.58-.554 5.372-.832.215-.03.433-.052.647-.094 1.152-.229 2.303-.462 3.455-.694l5.23-1.337 1.937-.74.405-.113c.712.363 1.378.785 1.7 1.563.089.212.09.46.132.692-.696.992-1.72 1.538-2.771 2.047l-1.617.551c-.211.062-.42.133-.633.184-1.838.447-3.676.891-5.514 1.336l-3.689.628M740.584 294.794c1.109-.143 2.219-.282 3.327-.43 1.68-.225 3.362-.44 5.039-.69 1.656-.246 3.308-.528 4.96-.795l3.785-.644c.366-.066.738-.11 1.097-.202 1.654-.427 3.304-.868 4.956-1.303l1.734-.635.825-.315c.65.42 1.37.771 1.667 1.562.082.22.105.46.155.692-.248.284-.457.622-.753.842-.538.4-1.128.731-1.697 1.09l-1.845.706-5.745 1.43-3.775.66c-1.436.217-2.871.44-4.309.65-.334.048-.674.049-1.011.072-2.735-.364-5.472-.718-8.205-1.098-1.13-.157-2.252-.364-3.374-.566-.188-.034-.487-.027-.399-.382l3.568-.644" fill="#7F0D1D"/><g transform="translate(737 261.012)"><mask id="t" fill="#fff"><use xlink:href="#s"/></mask><path d="M31.144.41999999999999993c0-.134-.026-.268-.032-.33-.416.392-.797.793-1.225 1.137-.299.24-.661.402-.995.599l-2.08.806L21.7 3.91l-4.182.79c-.151.016-.304.024-.454.047-1.445.22-2.887.46-4.335.663-3.047.429-6.096.84-9.145 1.257-.33.058-.66.118-.99.173-.754.127-1.512.234-2.26.39-.133.029-.322.257-.322.393C0 11.396.009 15.168.015 18.94c.147-.038.292-.085.44-.113 1.044-.2 2.087-.395 3.13-.592 1.262-.148 2.526-.282 3.786-.448 1.628-.216 3.254-.448 4.878-.69 1.793-.268 3.582-.554 5.373-.833.216-.03.433-.052.647-.094 1.152-.229 2.303-.462 3.455-.694l-.034-1.605c.01.535.022 1.07.034 1.605l5.23-1.337 1.937-.74.405-.113c.381-.28.79-.53 1.136-.849.366-.34.715-.72.715-1.28-.001-3.579 0-7.158-.002-10.737" fill="#DD3734" mask="url(#t)"/></g><path d="M768.13 292.034c.005 3.752.027 7.504-.01 11.255-.004.362-.292.815-.586 1.06-.526.44-1.156.754-1.743 1.12l-.112-11.502c.569-.36 1.159-.69 1.697-1.091.296-.22.505-.558.753-.842zm-4.296 2.638l1.845-.705.112 11.502-1.931.756-5.859 1.467-3.686.643c-1.407.233-2.81.493-4.221.693-3.015.428-6.034.826-9.051 1.235-.083.01-.17.002-.254.002-1.256.215-2.512.43-3.773.644v-11.66l3.771-.555c1.177-.169 2.353-.341 3.53-.506 1.466-.205 2.933-.402 4.398-.606.096-.014.186-.065.279-.098.337-.023.677-.024 1.011-.072 1.438-.21 2.873-.433 4.309-.65l3.775-.66 5.745-1.43zM763.748 290.73c-1.652.435-3.302.876-4.956 1.303-.36.092-.73.136-1.097.202l-3.784.644c-1.654.267-3.305.55-4.961.795-1.677.25-3.359.465-5.039.69-1.108.148-2.218.287-3.327.43l-3.568.644V283.75c1.211-.187 2.434-.375 3.658-.562 0 .347.003.695.005 1.043-.002-.348-.005-.696-.005-1.043 1.882-.26 3.765-.514 5.646-.782.868-.123 1.731-.275 2.597-.413l4.987-.694 3.689-.628c1.838-.445 3.676-.888 5.514-1.336.213-.052.422-.122.633-.184l1.616-.551c1.052-.51 2.076-1.055 2.772-2.047.006 3.75.035 7.502-.016 11.251-.006.409-.422.857-.74 1.203-.29.317-.705.52-1.065.773l-.825.315-1.734.635z" fill="#DD3734"/></g><g><g transform="translate(379 122)"><use fill="#000" filter="url(#v)" xlink:href="#w"/><use fill="#FFF" xlink:href="#w"/></g><g fill-rule="nonzero"><path d="M4.924 6.464h8.682c2.548.021 4.394.752 5.539 2.192 1.144 1.44 1.522 3.406 1.134 5.899a11.282 11.282 0 0 1-1.005 3.352 9.963 9.963 0 0 1-2.073 2.965C16.121 21.99 14.966 22.7 13.735 23c-1.23.3-2.505.451-3.822.451H6.026l-1.231 6.125H.292L4.924 6.464m3.79 3.675l-1.943 9.67c.13.021.259.032.389.032h.453c2.073.021 3.8-.183 5.183-.612 1.382-.452 2.31-2.02 2.786-4.707.388-2.256 0-3.556-1.167-3.9-1.144-.344-2.58-.505-4.308-.483-.259.021-.507.032-.745.032h-.68l.032-.032" fill="url(#x)" transform="translate(394 152)"/><path d="M25.409.309h4.47l-1.263 6.157h4.016c2.203.043 3.844.494 4.924 1.354 1.101.86 1.425 2.492.972 4.9l-2.17 10.733h-4.535l2.073-10.25c.216-1.075.15-1.838-.195-2.289-.345-.451-1.09-.677-2.235-.677l-3.595-.032-2.657 13.248h-4.47L25.41.309" fill="url(#y)" transform="translate(394 152)"/><path d="M43.329 6.464h8.68c2.549.021 4.395.752 5.54 2.192 1.144 1.44 1.522 3.406 1.134 5.899a11.282 11.282 0 0 1-1.005 3.352 9.963 9.963 0 0 1-2.073 2.965C54.525 21.99 53.37 22.7 52.14 23c-1.23.3-2.505.451-3.822.451H44.43l-1.231 6.125h-4.503L43.33 6.464m3.79 3.675l-1.944 9.67c.13.021.26.032.389.032h.453c2.073.021 3.8-.183 5.183-.612 1.382-.452 2.31-2.02 2.786-4.707.388-2.256 0-3.556-1.166-3.9-1.145-.344-2.581-.505-4.309-.483-.259.021-.507.032-.745.032h-.68l.033-.032" fill="url(#x)" transform="translate(394 152)"/></g></g><g><g transform="translate(535 64)"><use fill="#000" filter="url(#z)" xlink:href="#A"/><use fill="#FFF" xlink:href="#A"/></g><path d="M.568 1.946L4.459 51.73c.082.73.568 1.378 1.298 1.621l20.513 6.487c.325.08.73.08 1.135 0L47.92 53.35a1.926 1.926 0 0 0 1.297-1.621l3.892-49.784C53.027.892 52.216 0 51.162 0H2.352A1.79 1.79 0 0 0 .567 1.946zm42.405 15.486H17.595l.73 7.054h24.08l-1.54 20.109-14.108 4.54-14.108-4.46-.811-10.54h7.378v5.19l7.703 2.107 7.703-2.108.567-8.189H11.595l-1.54-20.108H43.54l-.568 6.405z" transform="translate(571 98)" fill="url(#B)" fill-rule="nonzero"/></g><g><g transform="translate(457 272)"><use fill="#000" filter="url(#C)" xlink:href="#D"/><use fill="#FFF" xlink:href="#D"/></g><g transform="translate(489.385 341.51)"><mask id="F" fill="#fff"><use xlink:href="#E"/></mask><path d="M.053 6.527C1.202 5.86 2.35 5.193 3.5 4.53 6.036 3.074 8.574 1.62 11.113.166c.105-.06.223-.1.335-.15.054.088.109.176.162.265 4.69 7.75 14.241 11.16 22.78 8.104C38.78 6.812 42.171 4.01 44.543 0c.596.332 1.196.658 1.789.997 1.394.797 2.784 1.602 4.177 2.402 1.32.758 2.641 1.518 3.965 2.27.485.276.98.534 1.47.8-.441.808-1.035 1.472-1.843 1.935-7.843 4.5-15.687 9.001-23.53 13.503a4.733 4.733 0 0 1-1.822.592c-.067.008-.13.043-.196.065h-1.312c-.053-.022-.105-.055-.16-.064a4.942 4.942 0 0 1-1.67-.573c-7.84-4.501-15.682-9.001-23.524-13.5C1.09 7.97.495 7.321.053 6.526" fill="#004482" mask="url(#F)"/></g><path d="M533.93 341.512c-2.372 4.01-5.763 6.81-10.155 8.383-8.538 3.057-18.089-.353-22.78-8.103-.053-.089-.108-.177-.162-.265-.392-.81-.823-1.605-1.17-2.434a17.904 17.904 0 0 1-1.356-6.124c-.224-4.946 1.245-9.341 4.426-13.137 2.808-3.35 6.385-5.502 10.682-6.399 4.164-.87 8.2-.412 12.06 1.387 3.51 1.635 6.269 4.114 8.28 7.41.056.093.076.207.112.31-2.654 1.527-5.308 3.053-7.963 4.577-.089.051-.187.084-.282.126-.03-.065-.052-.134-.089-.195-2.037-3.39-6.263-5.2-10.137-4.34-5.162 1.143-8.37 5.975-7.388 11.144.194 1.021.537 1.994 1.11 2.875.035.074.064.151.106.221 2.147 3.53 6.427 5.285 10.454 4.26 2.589-.658 4.58-2.133 5.947-4.427.103.04.213.07.308.125.694.393 1.385.79 2.076 1.19l5.92 3.416" fill="#FEFEFE"/><path d="M534.374 335.157v-2.105h2.106v-2.12h-2.122v-2.078h-2.121v2.093h-2.095v2.121h2.122v2.089h2.11zm7.952-4.214v-2.1h-2.115v2.108h-2.098v2.115h2.106v2.082h2.125v-2.09h2.109v-2.115h-2.127zm-8.397 10.569c-1.973-1.14-3.946-2.278-5.92-3.417-.69-.398-1.382-.796-2.076-1.19-.095-.054-.205-.083-.308-.124-.096-.077-.183-.167-.288-.228-.62-.36-1.243-.714-1.864-1.07-1.307-.748-2.615-1.494-3.919-2.246-.71-.41-1.412-.83-2.118-1.246.077-.052.15-.11.23-.157 1.829-1.049 3.66-2.094 5.486-3.145.827-.476 1.647-.964 2.47-1.446.094-.042.193-.075.282-.126 2.655-1.524 5.309-3.05 7.963-4.576 1.195-.692 2.389-1.386 3.586-2.074 2.505-1.44 5.011-2.877 7.518-4.314.098-.057.199-.11.32-.176.314.45.502.94.617 1.45.081.36.13.737.131 1.106.007 8.981.005 17.962.006 26.944 0 .902-.258 1.73-.714 2.504-.49-.266-.986-.524-1.47-.8-1.325-.753-2.645-1.512-3.966-2.27-1.393-.8-2.783-1.605-4.177-2.402-.593-.34-1.192-.665-1.789-.997z" fill="#00589B"/><path d="M525.622 327.243c-.823.482-1.643.97-2.47 1.446-1.827 1.051-3.657 2.096-5.486 3.145-.08.047-.153.105-.23.157-.066.03-.135.054-.197.09-1.268.726-2.534 1.456-3.802 2.182-1.439.823-2.88 1.643-4.32 2.464-.572-.88-.915-1.854-1.11-2.875-.98-5.17 2.227-10.001 7.389-11.145 3.874-.858 8.1.95 10.137 4.341.037.061.06.13.09.195" fill="#6499D1"/><path d="M509.118 336.727c1.44-.821 2.88-1.641 4.32-2.464 1.267-.726 2.533-1.456 3.8-2.183.063-.035.132-.06.198-.089.706.416 1.409.837 2.118 1.246 1.304.752 2.612 1.498 3.919 2.246.621.356 1.245.71 1.864 1.07.105.06.192.151.288.228-1.367 2.294-3.358 3.77-5.947 4.428-4.027 1.024-8.307-.73-10.454-4.26-.042-.07-.071-.148-.106-.222" fill="#014482"/><path fill="#FAFBFC" d="M542.326 330.943h2.127v2.114h-2.11v2.091h-2.124v-2.082h-2.106v-2.115h2.098v-2.109h2.115z"/><path fill="#FEFEFE" d="M534.374 335.157h-2.11v-2.089h-2.122v-2.12h2.095v-2.094h2.121v2.078h2.122v2.12h-2.106z"/><path d="M516.565 299.925c-.189.047-.376.1-.566.14-.74.153-1.357.568-1.995.934-5.55 3.182-11.1 6.367-16.649 9.551-2.026 1.163-4.057 2.32-6.078 3.493-1.303.756-2.051 1.93-2.461 3.344-.037.127-.079.252-.118.378v28.47c.163.462.318.926.492 1.384.057.149.164.28.249.418 1.148-.665 2.295-1.334 3.446-1.995 2.536-1.458 5.075-2.912 7.613-4.366.106-.06.223-.1.335-.149-.392-.81-.823-1.605-1.17-2.434a17.905 17.905 0 0 1-1.356-6.124c-.224-4.946 1.245-9.341 4.426-13.137 2.808-3.35 6.385-5.501 10.682-6.399 4.164-.87 8.2-.412 12.06 1.387 3.51 1.636 6.269 4.114 8.28 7.41.056.093.076.207.112.31 1.195-.69 2.389-1.385 3.586-2.073 2.505-1.44 5.012-2.877 7.518-4.314.098-.057.199-.11.32-.176l-26.32-16.052h-2.406z" fill="#98BCE0"/></g></g></svg>